<svg width="200" height="200" viewBox="0 0 200 200" fill="none" xmlns="http://www.w3.org/2000/svg">
<rect x="0.5" y="0.5" width="199" height="199" fill="#0F0F0F"/>
<path d="M36.2784 105V93.3636H43.5739V94.875H38.0341V98.4205H43.1932V99.9261H38.0341V103.489H43.642V105H36.2784ZM47.4815 99.8182V105H45.7827V96.2727H47.4134V97.6932H47.5213C47.7221 97.2311 48.0365 96.8598 48.4645 96.5795C48.8963 96.2992 49.4399 96.1591 50.0952 96.1591C50.6899 96.1591 51.2107 96.2841 51.6577 96.5341C52.1046 96.7803 52.4512 97.1477 52.6974 97.6364C52.9437 98.125 53.0668 98.7292 53.0668 99.4489V105H51.3679V99.6534C51.3679 99.0208 51.2031 98.5265 50.8736 98.1705C50.544 97.8106 50.0914 97.6307 49.5156 97.6307C49.1217 97.6307 48.7713 97.7159 48.4645 97.8864C48.1615 98.0568 47.9209 98.3068 47.7429 98.6364C47.5687 98.9621 47.4815 99.3561 47.4815 99.8182ZM59.419 96.2727V97.6364H54.652V96.2727H59.419ZM55.9304 94.1818H57.6293V102.438C57.6293 102.767 57.6785 103.015 57.777 103.182C57.8755 103.345 58.0024 103.456 58.1577 103.517C58.3168 103.574 58.4891 103.602 58.6747 103.602C58.8111 103.602 58.9304 103.593 59.0327 103.574C59.1349 103.555 59.2145 103.54 59.2713 103.528L59.5781 104.932C59.4796 104.97 59.3395 105.008 59.1577 105.045C58.9759 105.087 58.7486 105.11 58.4759 105.114C58.0289 105.121 57.6122 105.042 57.2259 104.875C56.8395 104.708 56.527 104.451 56.2884 104.102C56.0497 103.754 55.9304 103.316 55.9304 102.79V94.1818ZM64.9659 105.176C64.1061 105.176 63.3655 104.992 62.7443 104.625C62.1269 104.254 61.6496 103.733 61.3125 103.062C60.9792 102.388 60.8125 101.598 60.8125 100.693C60.8125 99.7992 60.9792 99.0114 61.3125 98.3295C61.6496 97.6477 62.1193 97.1155 62.7216 96.733C63.3277 96.3504 64.036 96.1591 64.8466 96.1591C65.339 96.1591 65.8163 96.2405 66.2784 96.4034C66.7405 96.5663 67.1553 96.822 67.5227 97.1705C67.8902 97.5189 68.1799 97.9716 68.392 98.5284C68.6042 99.0814 68.7102 99.7538 68.7102 100.545V101.148H61.7727V99.875H67.0455C67.0455 99.428 66.9545 99.0322 66.7727 98.6875C66.5909 98.339 66.3352 98.0644 66.0057 97.8636C65.6799 97.6629 65.2973 97.5625 64.858 97.5625C64.3807 97.5625 63.964 97.6799 63.608 97.9148C63.2557 98.1458 62.983 98.4489 62.7898 98.8239C62.6004 99.1951 62.5057 99.5985 62.5057 100.034V101.028C62.5057 101.612 62.608 102.108 62.8125 102.517C63.0208 102.926 63.3106 103.239 63.6818 103.455C64.053 103.667 64.4867 103.773 64.983 103.773C65.3049 103.773 65.5985 103.727 65.8636 103.636C66.1288 103.542 66.358 103.402 66.5511 103.216C66.7443 103.03 66.892 102.801 66.9943 102.528L68.6023 102.818C68.4735 103.292 68.2424 103.706 67.9091 104.062C67.5795 104.415 67.1648 104.689 66.6648 104.886C66.1686 105.08 65.6023 105.176 64.9659 105.176ZM70.5952 105V96.2727H72.2372V97.6591H72.3281C72.4872 97.1894 72.7675 96.8201 73.169 96.5511C73.5743 96.2784 74.0327 96.142 74.544 96.142C74.6501 96.142 74.7751 96.1458 74.919 96.1534C75.0668 96.161 75.1823 96.1705 75.2656 96.1818V97.8068C75.1974 97.7879 75.0762 97.767 74.902 97.7443C74.7277 97.7178 74.5535 97.7045 74.3793 97.7045C73.9777 97.7045 73.6198 97.7898 73.3054 97.9602C72.9948 98.1269 72.7486 98.3598 72.5668 98.6591C72.3849 98.9545 72.294 99.2917 72.294 99.6705V105H70.5952ZM83.5099 105.193C82.9569 105.193 82.4569 105.091 82.0099 104.886C81.563 104.678 81.2088 104.377 80.9474 103.983C80.6899 103.589 80.5611 103.106 80.5611 102.534C80.5611 102.042 80.6558 101.636 80.8452 101.318C81.0346 101 81.2902 100.748 81.6122 100.562C81.9342 100.377 82.294 100.237 82.6918 100.142C83.0895 100.047 83.4948 99.9754 83.9077 99.9261C84.4304 99.8655 84.8546 99.8163 85.1804 99.7784C85.5062 99.7367 85.7429 99.6705 85.8906 99.5795C86.0384 99.4886 86.1122 99.3409 86.1122 99.1364V99.0966C86.1122 98.6004 85.9721 98.2159 85.6918 97.9432C85.4152 97.6705 85.0024 97.5341 84.4531 97.5341C83.8812 97.5341 83.4304 97.661 83.1009 97.9148C82.7751 98.1648 82.5497 98.4432 82.4247 98.75L80.8281 98.3864C81.0175 97.8561 81.294 97.428 81.6577 97.1023C82.0251 96.7727 82.4474 96.5341 82.9247 96.3864C83.402 96.2348 83.9039 96.1591 84.4304 96.1591C84.7789 96.1591 85.1482 96.2008 85.5384 96.2841C85.9323 96.3636 86.2997 96.5114 86.6406 96.7273C86.9853 96.9432 87.2675 97.2519 87.4872 97.6534C87.7069 98.0511 87.8168 98.5682 87.8168 99.2045V105H86.1577V103.807H86.0895C85.9796 104.027 85.8149 104.242 85.5952 104.455C85.3755 104.667 85.0933 104.843 84.7486 104.983C84.4039 105.123 83.991 105.193 83.5099 105.193ZM83.8793 103.83C84.349 103.83 84.7505 103.737 85.0838 103.551C85.4209 103.366 85.6766 103.123 85.8509 102.824C86.0289 102.521 86.1179 102.197 86.1179 101.852V100.727C86.0573 100.788 85.9399 100.845 85.7656 100.898C85.5952 100.947 85.4001 100.991 85.1804 101.028C84.9607 101.062 84.7467 101.095 84.5384 101.125C84.33 101.152 84.1558 101.174 84.0156 101.193C83.6861 101.235 83.3849 101.305 83.1122 101.403C82.8433 101.502 82.6274 101.644 82.4645 101.83C82.3054 102.011 82.2259 102.254 82.2259 102.557C82.2259 102.977 82.3812 103.295 82.6918 103.511C83.0024 103.723 83.3982 103.83 83.8793 103.83ZM101.78 96.2727L98.6151 105H96.7969L93.6264 96.2727H95.4503L97.6605 102.989H97.7514L99.956 96.2727H101.78ZM105.666 105.193C105.113 105.193 104.613 105.091 104.166 104.886C103.719 104.678 103.365 104.377 103.104 103.983C102.846 103.589 102.717 103.106 102.717 102.534C102.717 102.042 102.812 101.636 103.001 101.318C103.191 101 103.446 100.748 103.768 100.562C104.09 100.377 104.45 100.237 104.848 100.142C105.246 100.047 105.651 99.9754 106.064 99.9261C106.587 99.8655 107.011 99.8163 107.337 99.7784C107.662 99.7367 107.899 99.6705 108.047 99.5795C108.195 99.4886 108.268 99.3409 108.268 99.1364V99.0966C108.268 98.6004 108.128 98.2159 107.848 97.9432C107.571 97.6705 107.159 97.5341 106.609 97.5341C106.037 97.5341 105.587 97.661 105.257 97.9148C104.931 98.1648 104.706 98.4432 104.581 98.75L102.984 98.3864C103.174 97.8561 103.45 97.428 103.814 97.1023C104.181 96.7727 104.604 96.5341 105.081 96.3864C105.558 96.2348 106.06 96.1591 106.587 96.1591C106.935 96.1591 107.304 96.2008 107.695 96.2841C108.089 96.3636 108.456 96.5114 108.797 96.7273C109.142 96.9432 109.424 97.2519 109.643 97.6534C109.863 98.0511 109.973 98.5682 109.973 99.2045V105H108.314V103.807H108.246C108.136 104.027 107.971 104.242 107.751 104.455C107.532 104.667 107.25 104.843 106.905 104.983C106.56 105.123 106.147 105.193 105.666 105.193ZM106.036 103.83C106.505 103.83 106.907 103.737 107.24 103.551C107.577 103.366 107.833 103.123 108.007 102.824C108.185 102.521 108.274 102.197 108.274 101.852V100.727C108.214 100.788 108.096 100.845 107.922 100.898C107.751 100.947 107.556 100.991 107.337 101.028C107.117 101.062 106.903 101.095 106.695 101.125C106.486 101.152 106.312 101.174 106.172 101.193C105.842 101.235 105.541 101.305 105.268 101.403C105 101.502 104.784 101.644 104.621 101.83C104.462 102.011 104.382 102.254 104.382 102.557C104.382 102.977 104.537 103.295 104.848 103.511C105.159 103.723 105.554 103.83 106.036 103.83ZM113.935 93.3636V105H112.236V93.3636H113.935ZM116.22 105V96.2727H117.919V105H116.22ZM117.078 94.9261C116.783 94.9261 116.529 94.8277 116.317 94.6307C116.108 94.4299 116.004 94.1913 116.004 93.9148C116.004 93.6345 116.108 93.3958 116.317 93.1989C116.529 92.9981 116.783 92.8977 117.078 92.8977C117.374 92.8977 117.625 92.9981 117.834 93.1989C118.046 93.3958 118.152 93.6345 118.152 93.9148C118.152 94.1913 118.046 94.4299 117.834 94.6307C117.625 94.8277 117.374 94.9261 117.078 94.9261ZM123.472 105.17C122.767 105.17 122.138 104.991 121.585 104.631C121.036 104.267 120.604 103.75 120.29 103.08C119.979 102.405 119.824 101.597 119.824 100.653C119.824 99.7102 119.981 98.9034 120.295 98.233C120.614 97.5625 121.049 97.0492 121.602 96.6932C122.155 96.3371 122.782 96.1591 123.483 96.1591C124.025 96.1591 124.46 96.25 124.79 96.4318C125.123 96.6098 125.381 96.8182 125.562 97.0568C125.748 97.2955 125.892 97.5057 125.994 97.6875H126.097V93.3636H127.795V105H126.136V103.642H125.994C125.892 103.828 125.744 104.04 125.551 104.278C125.362 104.517 125.1 104.725 124.767 104.903C124.434 105.081 124.002 105.17 123.472 105.17ZM123.847 103.722C124.335 103.722 124.748 103.593 125.085 103.335C125.426 103.074 125.684 102.712 125.858 102.25C126.036 101.788 126.125 101.25 126.125 100.636C126.125 100.03 126.038 99.5 125.864 99.0455C125.689 98.5909 125.434 98.2367 125.097 97.983C124.759 97.7292 124.343 97.6023 123.847 97.6023C123.335 97.6023 122.909 97.7348 122.568 98C122.227 98.2652 121.97 98.6269 121.795 99.0852C121.625 99.5436 121.54 100.061 121.54 100.636C121.54 101.22 121.627 101.744 121.801 102.21C121.975 102.676 122.233 103.045 122.574 103.318C122.919 103.587 123.343 103.722 123.847 103.722ZM142.074 93.3636H143.835V101.017C143.835 101.831 143.644 102.553 143.261 103.182C142.879 103.807 142.341 104.299 141.648 104.659C140.955 105.015 140.142 105.193 139.21 105.193C138.282 105.193 137.472 105.015 136.778 104.659C136.085 104.299 135.547 103.807 135.165 103.182C134.782 102.553 134.591 101.831 134.591 101.017V93.3636H136.347V100.875C136.347 101.402 136.462 101.869 136.693 102.278C136.928 102.688 137.259 103.009 137.688 103.244C138.116 103.475 138.623 103.591 139.21 103.591C139.801 103.591 140.311 103.475 140.739 103.244C141.17 103.009 141.5 102.688 141.727 102.278C141.958 101.869 142.074 101.402 142.074 100.875V93.3636ZM146.388 105V93.3636H150.536C151.437 93.3636 152.185 93.5189 152.78 93.8295C153.378 94.1402 153.825 94.5701 154.121 95.1193C154.416 95.6648 154.564 96.2955 154.564 97.0114C154.564 97.7235 154.414 98.3504 154.115 98.892C153.82 99.4299 153.373 99.8485 152.774 100.148C152.179 100.447 151.431 100.597 150.53 100.597H147.388V99.0852H150.371C150.939 99.0852 151.401 99.0038 151.757 98.8409C152.117 98.678 152.38 98.4413 152.547 98.1307C152.714 97.8201 152.797 97.447 152.797 97.0114C152.797 96.572 152.712 96.1913 152.541 95.8693C152.375 95.5473 152.111 95.3011 151.751 95.1307C151.395 94.9564 150.928 94.8693 150.348 94.8693H148.143V105H146.388ZM152.132 99.75L155.007 105H153.007L150.189 99.75H152.132ZM156.7 105V93.3636H158.456V103.489H163.729V105H156.7Z" fill="white"/>
<rect x="0.5" y="0.5" width="199" height="199" stroke="black"/>
</svg>
